# xmcd
#
# Track frame offsets:
# 150
# 27142
# 46096
# 71147
# 102138
# 130815
# 150018
# 177578
# 204135
# 221974
# 247904
# 294202
#
# Disc length: 4203 seconds
#
#
# Revision: 3
# Processed by: cddbd v1.5.2PL0 Copyright (c) Steve Scherf et al.
# Submitted via: FreeRIP 2.945 
#
DISCID=9b10690c
DTITLE=Long John Baldry - On Stage Tonight - Baldry's Out
DYEAR=1993
DGENRE=Blues
TTITLE0=Everyday I Have The Blues - Times Are Getting Tougher Then Tough
TTITLE1=Shake That Thing
TTITLE2=Insane Asylum
TTITLE3=I'm Ready
TTITLE4=I'd Rather Go Blind
TTITLE5=Baldry's Out
TTITLE6=A Thrill's A Thrill
TTITLE7=Backwater Blues
TTITLE8=It Ain't Easy
TTITLE9=Stormy Monday Blues
TTITLE10=Don't Try To Lay No Boogie Woogie On The King Of Rock And Roll
TTITLE11=Midnight In New Orleans
EXTD=YEAR: 1993
EXTT0=
EXTT1=
EXTT2=
EXTT3=
EXTT4=
EXTT5=
EXTT6=
EXTT7=
EXTT8=
EXTT9=
EXTT10=
EXTT11=
PLAYORDER=
